<svg width="84" height="106" viewBox="0 0 84 106" fill="none" xmlns="http://www.w3.org/2000/svg">
<path d="M83.1543 106H65.2539V56.6362C65.2539 54.2954 64.6572 52.5283 63.4639 51.335C62.2705 50.0957 60.4805 49.4761 58.0938 49.4761H25.8042V31.5757H58.0938C59.792 31.5757 61.582 31.7822 63.4639 32.1953C65.3457 32.5625 67.2046 33.1592 69.0405 33.9854C70.9224 34.8115 72.7124 35.8901 74.4106 37.2212C76.1089 38.5063 77.6006 40.0898 78.8857 41.9717C80.1709 43.8076 81.2036 45.9419 81.9839 48.3745C82.7642 50.8071 83.1543 53.561 83.1543 56.6362V106ZM18.5752 106H0.674805V0.112305H18.5752V106Z" fill="black"/>
</svg>
